<?xml version="1.0" standalone="no"?>
<!DOCTYPE svg PUBLIC "-//W3C//DTD SVG 20010904//EN"
 "http://www.w3.org/TR/2001/REC-SVG-20010904/DTD/svg10.dtd">
<svg version="1.0" xmlns="http://www.w3.org/2000/svg"
 width="308.000000pt" height="308.000000pt" viewBox="0 0 308.000000 308.000000"
 preserveAspectRatio="xMidYMid meet">
<metadata>
Created by potrace 1.11, written by Peter Selinger 2001-2013
</metadata>
<g transform="translate(0.000000,308.000000) scale(0.100000,-0.100000)"
fill="#000000" stroke="none">
<path d="M985 3070 c3 -6 0 -11 -7 -11 -7 -1 -20 -2 -28 -3 -17 -1 -27 -46
-11 -46 6 0 10 -6 9 -12 -2 -7 2 -12 8 -11 6 1 11 -4 11 -12 0 -8 -7 -11 -16
-7 -13 5 -14 3 -4 -10 7 -8 10 -18 6 -21 -3 -4 1 -7 11 -7 9 0 15 -4 12 -9 -4
-5 0 -12 6 -15 7 -4 3 -4 -10 -2 -12 2 -20 0 -16 -5 3 -5 12 -9 20 -9 13 0 17
-15 17 -63 0 -13 5 -16 21 -12 11 2 15 2 9 -1 -16 -7 -17 -44 -2 -44 5 0 7 -4
4 -10 -3 -5 2 -10 12 -11 12 0 14 -2 4 -6 -11 -5 -11 -7 0 -14 11 -7 11 -9 1
-9 -10 0 -9 -4 3 -16 9 -9 14 -23 11 -30 -3 -8 0 -14 5 -14 6 0 9 -9 6 -19 -3
-12 0 -18 7 -15 6 2 16 -7 23 -21 8 -19 8 -23 0 -18 -7 3 -3 -4 8 -17 11 -13
14 -20 7 -16 -11 7 -12 4 -3 -13 7 -11 14 -21 17 -21 3 0 2 6 -2 13 -4 6 -3 8
1 4 12 -10 16 -39 5 -32 -5 3 -12 1 -15 -5 -4 -6 -1 -9 7 -8 8 2 13 -6 12 -18
0 -22 10 -25 34 -10 11 7 11 4 0 -13 -10 -17 -10 -23 1 -33 11 -11 12 -10 6 1
-6 10 -4 12 5 6 10 -6 8 -13 -11 -28 -23 -19 -23 -19 -2 -13 13 4 24 2 29 -5
4 -8 3 -9 -4 -5 -14 9 -16 -13 -3 -33 8 -13 12 -13 28 -1 16 13 16 12 -1 -8
-11 -12 -14 -22 -8 -22 7 0 12 -5 12 -11 0 -5 -6 -7 -12 -4 -7 4 -6 1 3 -7 9
-7 14 -20 11 -28 -4 -12 -2 -13 9 -3 12 10 15 8 15 -7 0 -10 -3 -17 -6 -15 -4
2 -7 -2 -7 -10 0 -8 5 -11 10 -8 6 4 8 0 4 -10 -3 -10 -2 -17 3 -17 6 0 10 -5
10 -12 0 -6 7 -19 16 -29 10 -11 12 -19 4 -24 -6 -3 -9 -2 -8 3 2 6 -1 11 -6
11 -6 1 -11 -6 -12 -15 -4 -24 -14 -30 -15 -8 0 17 -1 16 -9 -3 -5 -13 -16
-23 -25 -23 -8 0 -15 -4 -15 -10 0 -5 -6 -10 -14 -10 -8 0 -17 -6 -19 -12 -4
-10 -6 -10 -6 0 -1 7 -5 11 -11 7 -5 -3 -7 -12 -4 -19 7 -18 -12 -30 -22 -15
-5 8 -3 9 6 4 9 -5 11 -4 6 4 -4 6 -12 9 -17 5 -5 -3 -7 -10 -4 -15 4 -5 1 -9
-6 -9 -7 0 -10 -3 -6 -6 7 -8 -17 -34 -32 -34 -11 0 -15 -15 -12 -34 1 -5 -5
-4 -13 3 -13 11 -15 10 -11 -8 2 -12 0 -19 -4 -16 -5 2 -15 -3 -22 -12 -8 -10
-9 -14 -2 -10 8 5 11 0 10 -12 -1 -19 -3 -19 -18 -5 -16 15 -17 14 -12 -8 6
-21 5 -22 -13 -8 -15 11 -16 11 -6 0 17 -20 15 -33 -4 -26 -13 5 -14 3 -6 -6
7 -9 7 -18 -3 -31 -8 -11 -14 -14 -17 -7 -2 6 -18 12 -36 12 -18 1 -35 6 -39
11 -3 6 -2 7 4 4 5 -3 10 0 10 8 0 12 -4 12 -20 -2 -20 -17 -20 -17 -13 1 6
17 5 17 -11 5 -15 -12 -16 -12 -11 2 5 12 1 15 -18 11 -14 -2 -24 0 -24 7 0 7
-4 9 -10 6 -5 -3 -10 1 -10 9 0 8 -4 18 -10 21 -5 3 -7 0 -4 -8 3 -8 -1 -18
-8 -23 -7 -4 -10 -4 -6 0 11 13 -15 33 -34 28 -10 -2 -18 1 -18 7 0 6 -8 11
-18 11 -10 0 -23 5 -30 12 -8 8 -15 8 -27 -2 -13 -11 -14 -10 -9 5 6 14 3 16
-16 10 -17 -5 -21 -4 -15 6 6 9 4 11 -8 6 -10 -4 -14 -2 -11 7 3 7 -2 13 -11
14 -8 1 -22 3 -30 4 -8 1 -15 5 -15 9 0 5 -7 6 -15 3 -12 -5 -14 -2 -8 12 6
17 5 17 -10 5 -13 -10 -17 -10 -17 -1 0 10 -3 10 -15 0 -13 -11 -14 -10 -9 5
5 12 4 16 -3 12 -14 -9 -45 2 -38 13 3 5 0 12 -6 16 -8 4 -9 3 -5 -4 4 -7 1
-12 -8 -12 -9 0 -16 6 -16 13 0 9 -2 9 -9 -1 -6 -10 -10 -8 -14 9 -5 18 -9 21
-18 12 -9 -9 -15 -8 -25 2 -8 8 -23 12 -34 10 -11 -2 -20 1 -20 6 0 6 -5 7
-10 4 -6 -3 -10 2 -10 12 0 15 -2 16 -10 3 -6 -10 -10 -11 -10 -2 0 6 -9 12
-20 12 -11 0 -20 6 -20 13 0 9 -3 8 -9 -2 -6 -10 -10 -10 -13 -1 -2 6 -16 13
-31 13 -15 1 -27 5 -27 9 0 4 -6 5 -14 2 -8 -3 -12 -13 -9 -22 4 -15 3 -15 -6
-2 -6 9 -7 18 -1 24 6 6 10 14 10 19 0 5 -7 2 -15 -7 -13 -13 -15 -92 -15
-614 1 -641 0 -636 48 -592 14 14 22 16 25 7 3 -9 7 -9 19 0 8 7 18 10 21 7 4
-4 5 3 2 14 -4 21 -3 21 21 6 22 -15 24 -15 18 -1 -4 12 -1 14 17 10 15 -4 20
-3 15 5 -5 8 -2 10 8 6 9 -3 16 -1 16 6 0 6 5 8 10 5 6 -4 7 -11 4 -17 -4 -7
-2 -8 5 -4 6 4 9 11 6 16 -3 4 2 11 11 14 10 4 13 2 9 -7 -4 -6 1 -3 9 7 12
15 16 16 16 5 0 -12 2 -12 9 0 5 8 14 10 21 6 9 -5 11 -4 6 3 -4 7 -3 12 3 12
5 0 11 -5 13 -12 3 -7 7 -5 11 6 4 10 3 15 -3 11 -6 -3 -10 -1 -10 5 0 7 7 9
15 6 35 -14 50 -17 40 -9 -15 13 -18 36 -3 27 19 -12 38 -14 38 -3 0 5 3 8 8
7 4 -1 18 4 32 12 22 11 24 11 15 -1 -5 -8 -3 -7 7 3 12 13 18 15 21 6 3 -8 6
-6 6 4 1 12 6 15 18 11 11 -4 14 -3 9 5 -4 7 -2 12 3 12 6 0 11 -5 11 -12 0
-6 6 -4 13 7 10 12 16 14 21 7 4 -7 12 -12 17 -12 6 0 8 4 5 8 -2 4 4 14 16
21 16 10 19 10 13 -1 -3 -7 -1 -6 7 3 7 9 21 15 31 13 10 -1 14 2 11 8 -4 6
-1 9 7 6 8 -3 20 2 27 11 10 12 12 13 6 1 -7 -13 -5 -13 9 -1 9 7 17 10 17 5
0 -5 5 -1 11 9 8 13 14 15 30 7 15 -9 21 -7 25 5 4 8 15 20 26 26 16 9 19 8
13 -2 -9 -14 10 -5 38 19 16 15 17 14 11 -4 -6 -16 -5 -17 7 -7 13 13 59 18
59 7 0 -3 -5 -15 -11 -27 -9 -20 -9 -20 4 -4 18 22 29 22 25 0 -2 -10 3 -17
10 -15 6 1 12 -3 12 -9 0 -5 5 -7 11 -3 8 5 10 -1 7 -19 -4 -20 -2 -24 11 -19
13 5 14 3 4 -10 -11 -12 -9 -17 13 -27 14 -6 30 -8 36 -5 7 4 8 2 4 -4 -4 -7
-3 -12 2 -12 6 0 9 -8 8 -17 0 -10 6 -18 14 -18 8 0 14 6 12 13 -1 8 2 11 9 7
8 -5 8 -10 0 -18 -17 -17 -13 -27 9 -27 11 0 20 -5 20 -11 0 -5 6 -7 13 -3 7
5 6 0 -3 -11 -14 -17 -13 -18 2 -12 12 4 25 -2 39 -16 19 -20 20 -21 14 -2 -5
16 -5 17 3 5 6 -8 9 -17 6 -22 -6 -10 32 -29 41 -20 5 4 5 1 1 -6 -4 -7 -12
-10 -17 -7 -5 4 -9 2 -9 -4 0 -5 6 -12 13 -14 9 -4 9 -6 0 -6 -7 -1 -10 -8 -6
-18 4 -11 3 -14 -5 -9 -8 5 -10 1 -5 -10 5 -13 3 -15 -8 -9 -12 8 -12 6 0 -8
12 -15 11 -17 -5 -17 -17 0 -17 -1 2 -15 19 -15 19 -15 -1 -8 -18 6 -19 5 -5
-12 13 -17 13 -18 -1 -13 -12 5 -15 1 -11 -18 3 -15 -3 -33 -14 -46 -11 -12
-14 -19 -8 -15 6 3 11 0 11 -8 0 -10 -5 -11 -19 -4 -10 6 -15 15 -12 21 4 7 2
8 -5 4 -8 -6 -9 -12 -2 -20 6 -7 7 -17 3 -21 -4 -5 -2 -6 3 -2 6 3 11 -3 11
-13 0 -11 -5 -16 -15 -12 -9 3 -12 1 -7 -6 4 -7 2 -12 -3 -12 -6 0 -11 5 -11
12 0 6 -3 8 -7 5 -3 -4 2 -16 12 -27 17 -19 17 -19 -4 -15 -11 2 -23 -1 -27
-6 -3 -5 0 -8 7 -7 6 2 14 -3 17 -11 3 -10 0 -12 -13 -7 -15 5 -16 4 -6 -8 9
-11 9 -16 1 -21 -7 -4 -10 -16 -7 -26 3 -10 0 -22 -5 -26 -7 -3 -8 -1 -4 5 4
7 3 12 -1 12 -12 0 -30 -51 -29 -82 1 -17 -3 -24 -11 -21 -19 7 -16 -8 5 -23
16 -13 16 -14 0 -8 -10 3 -18 1 -18 -5 0 -6 -8 -11 -17 -12 -15 0 -15 -2 2 -8
11 -5 24 -6 29 -3 5 3 6 0 2 -6 -4 -6 -14 -8 -24 -5 -14 6 -15 4 -4 -9 11 -13
10 -16 -4 -14 -9 0 -18 -7 -20 -17 -2 -14 3 -17 19 -13 13 4 10 0 -7 -8 -16
-7 -31 -21 -32 -30 -1 -9 1 -14 5 -11 4 2 8 -2 8 -10 0 -8 -4 -12 -8 -10 -3 3
-13 -3 -20 -12 -8 -9 -9 -14 -2 -10 7 5 9 0 6 -14 -3 -11 -12 -23 -19 -26 -7
-2 -10 -12 -7 -20 5 -12 2 -14 -8 -9 -8 4 -3 -1 11 -13 l25 -20 -25 6 -25 6
20 -24 c13 -15 14 -19 3 -11 -11 9 -18 10 -23 2 -3 -5 -1 -10 4 -10 6 0 11 -5
11 -11 0 -5 -4 -8 -9 -5 -13 8 -20 -28 -9 -48 9 -16 48 -17 499 -15 335 2 489
6 489 13 0 7 3 8 8 1 8 -12 77 -14 88 -3 11 12 26 9 18 -3 -4 -8 -1 -8 12 -1
19 10 26 12 45 12 6 0 9 7 6 14 -4 10 -1 13 8 10 8 -3 11 -13 9 -22 -4 -12 -2
-11 7 2 9 14 9 21 1 24 -6 2 -8 10 -5 18 3 7 10 11 16 7 6 -3 7 -1 3 6 -4 6
-12 9 -17 6 -8 -5 -11 8 -8 31 0 4 -4 10 -10 13 -6 4 -12 19 -13 33 -1 15 -6
24 -12 21 -5 -3 -7 5 -4 20 3 17 1 24 -5 20 -6 -4 -8 0 -4 11 4 10 3 15 -3 11
-14 -9 -12 9 3 24 10 10 8 11 -8 5 -17 -7 -18 -6 -7 8 10 13 10 18 1 24 -8 4
-9 3 -5 -4 4 -7 2 -12 -3 -12 -6 0 -11 10 -11 23 0 13 -5 28 -10 33 -6 6 -12
24 -13 41 -1 17 -5 29 -9 26 -7 -4 -13 28 -9 50 0 4 -4 7 -10 7 -8 0 -8 4 0
14 10 12 8 13 -8 9 -13 -3 -21 -1 -21 6 0 7 4 10 8 7 4 -2 8 3 8 13 0 13 -6
17 -21 13 -20 -4 -20 -4 0 12 11 10 14 15 8 11 -17 -8 -17 7 0 25 10 12 9 12
-4 2 -14 -10 -18 -10 -23 3 -4 11 -2 14 7 10 6 -4 4 0 -6 8 -12 10 -14 17 -8
22 6 3 11 12 11 18 0 8 -3 8 -9 -1 -6 -10 -11 -9 -22 4 -9 12 -10 15 -1 10 6
-4 12 -2 12 3 0 6 -4 11 -10 11 -5 0 -10 9 -10 20 0 11 -4 20 -10 20 -5 0 -10
14 -10 30 0 17 -4 30 -9 30 -5 0 -12 7 -15 16 -5 12 -3 14 7 8 7 -5 6 -2 -3 6
-18 17 -20 22 -20 51 0 11 -4 17 -10 14 -5 -3 -10 1 -10 9 0 26 -1 30 -13 45
-9 12 -9 13 1 7 8 -5 11 -1 8 16 -2 13 -9 22 -16 20 -6 -1 -9 2 -5 7 3 6 12 8
19 5 9 -4 13 3 11 21 -3 23 -1 24 13 13 13 -11 15 -11 9 5 -3 9 -2 17 3 17 6
0 10 -4 10 -10 0 -16 30 1 31 19 0 10 2 11 6 4 2 -7 9 -13 14 -13 6 0 7 5 4
11 -4 6 2 13 14 16 12 3 21 10 21 15 0 5 6 6 13 2 7 -5 6 0 -3 11 -8 10 -10
16 -4 12 6 -3 20 0 30 8 16 12 17 17 7 34 -9 15 -10 22 -1 27 6 4 8 3 5 -3 -4
-6 0 -16 8 -23 12 -10 15 -10 15 1 0 7 14 27 31 45 16 17 31 40 32 51 1 14 6
19 16 15 9 -3 12 -1 7 6 -4 7 -1 12 6 13 7 0 21 2 30 4 9 2 22 -3 29 -11 6 -8
15 -11 20 -8 5 3 9 -3 10 -13 0 -10 3 -13 6 -6 3 10 11 9 33 -2 15 -8 30 -11
34 -8 3 4 6 2 6 -3 0 -5 12 -11 28 -12 15 -1 29 -7 30 -12 2 -6 8 -10 13 -10
6 0 7 6 3 13 -4 6 4 3 17 -9 14 -12 37 -20 56 -20 17 1 29 -2 26 -7 -2 -4 1
-7 7 -7 6 0 9 -4 5 -9 -3 -5 0 -13 6 -17 7 -4 9 -3 6 2 -3 6 -2 16 4 24 7 13
9 12 9 -2 0 -21 20 -34 29 -19 10 15 43 3 35 -13 -3 -6 2 -2 10 8 19 23 21 14
5 -17 -12 -21 -12 -21 16 -3 15 10 24 13 21 7 -4 -6 -1 -11 6 -11 9 0 9 -3 -2
-10 -11 -7 -9 -8 11 -6 13 1 31 6 38 10 7 4 15 5 18 2 4 -3 1 -6 -5 -6 -7 0
-12 -4 -12 -9 0 -5 8 -8 18 -6 25 4 54 -14 45 -28 -4 -8 -2 -8 9 1 11 9 18 10
23 2 3 -5 17 -10 31 -10 14 0 22 -4 19 -10 -3 -5 1 -10 10 -10 10 0 13 -5 9
-12 -4 -7 -3 -8 5 -4 9 6 9 11 0 22 -7 8 -7 14 -1 14 5 0 12 -7 16 -15 3 -8
10 -15 16 -15 6 0 8 6 5 13 -4 6 0 4 8 -6 8 -9 24 -17 36 -17 15 0 20 -4 15
-13 -5 -7 0 -6 11 3 11 9 16 10 11 3 -5 -9 0 -13 13 -13 12 0 21 -4 21 -8 0
-4 15 -8 34 -8 20 0 32 4 29 10 -4 5 0 7 8 4 11 -4 14 5 14 37 0 33 -3 41 -15
38 -10 -3 -10 -1 2 6 15 10 17 46 17 411 0 226 -4 398 -9 395 -5 -3 -12 -1
-15 5 -4 6 -3 10 2 9 20 -3 25 2 14 15 -8 9 -8 16 -2 20 6 4 6 18 1 36 -6 20
-5 30 2 30 6 0 5 7 -3 17 -8 9 -9 14 -3 10 6 -3 10 5 10 23 0 16 -3 27 -8 24
-4 -3 -8 5 -8 18 0 18 2 20 10 8 6 -9 10 -10 10 -3 0 6 -5 15 -10 18 -6 4 -7
12 -3 18 5 9 3 9 -8 0 -13 -10 -15 -8 -13 18 2 25 0 28 -12 18 -11 -9 -14 -8
-14 2 0 12 -2 12 -9 0 -7 -11 -9 -11 -14 0 -4 10 -6 9 -6 -3 -1 -10 -6 -18
-12 -18 -5 0 -8 4 -5 8 3 5 -1 9 -8 9 -8 0 -12 -6 -9 -14 3 -9 -3 -13 -21 -13
-14 0 -26 -4 -26 -10 0 -5 -5 -10 -11 -10 -5 0 -7 6 -3 13 4 6 -2 4 -13 -6
-12 -10 -28 -15 -39 -11 -16 5 -17 4 -4 -6 13 -10 12 -11 -6 -7 -18 4 -21 1
-16 -17 5 -20 5 -20 -12 -3 -19 19 -31 23 -21 7 5 -9 -16 -15 -38 -11 -5 1 -6
-2 -3 -7 6 -10 -36 -32 -61 -32 -13 0 -14 -3 -2 -17 12 -16 11 -16 -8 0 -14
12 -23 15 -28 7 -3 -5 -11 -7 -17 -4 -7 5 -8 2 -3 -6 11 -18 -15 -30 -39 -18
-19 10 -19 9 -8 -5 11 -13 11 -15 -2 -13 -9 1 -19 5 -22 9 -4 4 -12 7 -18 7
-6 0 -5 -4 3 -9 7 -5 10 -14 6 -20 -5 -9 -10 -9 -20 -1 -9 8 -15 8 -20 0 -3
-6 -11 -7 -17 -4 -7 4 -8 2 -4 -5 6 -9 12 -9 24 1 15 12 16 11 3 -4 -10 -14
-17 -15 -33 -7 -16 9 -20 7 -25 -10 -5 -20 -6 -20 -19 -4 -12 17 -13 16 -9 -4
2 -13 -1 -25 -6 -29 -5 -3 -8 -2 -7 3 2 4 -1 8 -7 8 -5 0 -9 -3 -8 -7 2 -4 -5
-4 -14 -1 -12 5 -14 3 -8 -8 7 -11 5 -11 -10 1 -17 14 -18 13 -11 -5 4 -11 4
-16 0 -12 -4 4 -16 -1 -27 -10 -11 -10 -18 -13 -14 -8 3 6 2 17 -4 25 -7 12
-9 9 -9 -10 0 -20 -2 -22 -10 -10 -6 10 -10 11 -10 3 0 -7 -7 -13 -16 -13 -8
0 -22 -7 -30 -15 -12 -12 -20 -12 -36 -4 -15 8 -19 8 -14 0 4 -6 2 -11 -4 -11
-6 0 -8 -5 -4 -11 5 -8 1 -8 -13 0 -11 6 -24 7 -28 3 -5 -4 -4 -1 0 7 6 10 4
13 -7 9 -16 -7 -42 27 -33 42 4 6 -1 13 -9 16 -9 3 -13 11 -9 17 3 5 1 7 -4 4
-6 -4 -17 1 -24 10 -8 10 -9 14 -2 10 6 -4 14 -3 17 2 4 5 -5 8 -19 7 -13 -2
-22 0 -20 5 3 4 -4 11 -16 14 -16 5 -18 9 -9 15 10 6 6 15 -13 34 -14 14 -31
26 -37 26 -6 0 -8 5 -5 10 3 6 -3 10 -14 10 -23 0 -27 10 -10 27 8 8 7 13 -2
18 -7 5 -10 4 -5 -3 13 -21 -15 -24 -33 -3 -14 16 -20 18 -31 8 -10 -9 -11 -9
-6 1 6 11 -5 16 -26 13 -4 0 -5 8 -3 19 2 11 -3 27 -12 35 -12 12 -12 19 -3
30 6 8 9 19 5 25 -3 5 2 10 12 10 10 0 14 4 8 8 -19 13 -17 35 2 28 14 -6 15
-4 6 5 -13 13 -6 42 8 33 5 -3 9 4 9 16 0 12 5 18 10 15 6 -3 10 -1 10 4 0 6
-6 11 -12 11 -9 0 -9 3 1 9 9 6 11 16 7 27 -4 10 -4 15 0 11 9 -9 33 23 34 46
0 9 4 17 10 17 5 0 6 7 3 17 -4 11 -3 14 5 9 8 -5 10 -2 6 8 -4 11 0 16 12 16
11 0 15 4 9 8 -21 15 -16 34 7 27 13 -3 19 -3 13 2 -5 4 -11 16 -13 27 -3 14
1 17 14 12 14 -5 15 -4 5 8 -9 11 -9 15 1 19 10 4 10 8 -2 17 -13 10 -13 11 2
6 12 -4 18 2 20 22 2 15 8 26 14 25 7 -1 10 6 7 17 -3 11 -10 20 -16 20 -6 0
-8 3 -5 6 4 3 17 0 30 -7 21 -11 22 -11 9 4 -12 15 -11 17 5 18 11 0 14 3 7 5
-7 3 -9 12 -6 21 5 12 3 14 -7 8 -9 -5 -11 -4 -6 4 4 6 12 9 17 6 9 -6 11 -1
13 28 1 6 6 15 11 19 6 4 10 13 10 20 1 7 7 12 13 10 10 -2 10 3 1 19 -6 12
-7 19 -1 15 13 -8 36 20 27 34 -3 6 -11 7 -17 4 -6 -4 -8 -2 -5 4 4 5 17 8 30
5 22 -5 22 -5 2 10 -19 14 -19 16 -3 22 10 4 15 11 12 16 -3 5 -10 6 -16 3 -7
-4 -8 -2 -4 5 4 6 12 9 17 6 5 -4 17 -1 26 5 17 11 17 11 -1 6 -18 -6 -18 -5
-1 20 9 14 14 29 10 32 -4 4 -214 8 -466 10 -349 2 -459 -1 -453 -9 5 -8 3 -9
-7 -3 -20 12 -40 14 -33 3 3 -5 11 -6 17 -3 7 4 9 3 4 -1 -10 -11 -48 -14 -41
-3 3 4 2 8 -3 9 -4 0 -16 2 -26 4 -9 2 -15 -1 -11 -6 3 -5 10 -6 16 -3 6 4 8
2 5 -3 -4 -6 -18 -8 -33 -5 -17 3 -22 7 -14 12 7 4 -1 7 -19 6 -22 0 -30 -5
-26 -15 5 -12 3 -12 -11 0 -19 15 -47 21 -38 8 3 -5 11 -6 17 -3 7 4 8 3 4 -1
-10 -12 -37 -15 -37 -5 0 4 -7 11 -16 14 -8 3 -12 2 -9 -4z m-20 -50 c3 -6 -1
-7 -9 -4 -18 7 -21 14 -7 14 6 0 13 -4 16 -10z m845 -874 c0 -3 -4 -8 -10 -11
-5 -3 -10 -1 -10 4 0 6 5 11 10 11 6 0 10 -2 10 -4z m-550 -62 c0 -8 -19 -13
-24 -6 -3 5 1 9 9 9 8 0 15 -2 15 -3z m-969 -47 c-10 -9 -11 -8 -5 6 3 10 9
15 12 12 3 -3 0 -11 -7 -18z m519 -803 c0 -8 -5 -12 -10 -9 -6 4 -8 11 -5 16
9 14 15 11 15 -7z m215 -2 c-3 -3 -11 0 -18 7 -9 10 -8 11 6 5 10 -3 15 -9 12
-12z m1039 -33 c-9 -10 -22 -19 -28 -19 -6 0 0 7 12 16 12 8 19 20 16 26 -5 7
-2 8 5 4 9 -6 8 -13 -5 -27z m377 -12 c-10 -9 -11 -8 -5 6 3 10 9 15 12 12 3
-3 0 -11 -7 -18z m82 -32 c-3 -9 -8 -14 -10 -11 -3 3 -2 9 2 15 9 16 15 13 8
-4z m-573 -75 c0 -5 -5 -10 -11 -10 -5 0 -7 5 -4 10 3 6 8 10 11 10 2 0 4 -4
4 -10z m-60 -40 c0 -5 -2 -10 -4 -10 -3 0 -8 5 -11 10 -3 6 -1 10 4 10 6 0 11
-4 11 -10z m-1840 -74 c0 -2 -8 -10 -17 -17 -16 -13 -17 -12 -4 4 13 16 21 21
21 13z"/>
<path d="M1830 2286 c0 -2 7 -7 16 -10 8 -3 12 -2 9 4 -6 10 -25 14 -25 6z"/>
<path d="M2694 2062 c4 -3 14 -7 22 -8 9 -1 13 0 10 4 -4 3 -14 7 -22 8 -9 1
-13 0 -10 -4z"/>
<path d="M2010 1966 c0 -2 9 -6 20 -9 11 -3 18 -1 14 4 -5 9 -34 13 -34 5z"/>
<path d="M2150 1841 c0 -6 4 -13 10 -16 6 -3 7 1 4 9 -7 18 -14 21 -14 7z"/>
<path d="M2206 1838 c3 -5 10 -6 15 -3 13 9 11 12 -6 12 -8 0 -12 -4 -9 -9z"/>
<path d="M910 1836 c0 -2 8 -10 18 -17 15 -13 16 -12 3 4 -13 16 -21 21 -21
13z"/>
<path d="M2133 1258 c-3 -6 -1 -8 5 -4 5 3 13 0 15 -6 4 -10 6 -10 6 0 1 8 6
10 14 6 6 -4 8 -3 4 1 -12 13 -36 15 -44 3z"/>
<path d="M1060 1106 c0 -2 7 -6 15 -10 8 -3 15 -1 15 4 0 6 -7 10 -15 10 -8 0
-15 -2 -15 -4z"/>
<path d="M1205 760 c-3 -5 -1 -10 4 -10 6 0 11 5 11 10 0 6 -2 10 -4 10 -3 0
-8 -4 -11 -10z"/>
</g>
</svg>
